<?xml version="1.0" encoding="UTF-8"?>
<svg id="Camada_2" data-name="Camada 2" xmlns="http://www.w3.org/2000/svg" viewBox="0 0 176.9 76.02">
  <g id="Layer_1" data-name="Layer 1">
    <path d="M8.02,40.8c7.43-.47,17.35-1.52,20.41-9.59,1.12-2.94,1.08-6.45-.36-9.28-1.64-3.2-5.18-4.64-8.65-3.93-4.48,.92-7.85,4.75-10.4,8.28s-4.48,7.59-5.88,11.75S.87,46.8,.41,51.3s-.68,8.86,.16,13.18,3.22,8.63,7.46,10.5c3.73,1.65,8.48,1.51,11.29-1.78,1.25-1.46-.86-3.59-2.12-2.12-1.94,2.26-5.09,2.38-7.71,1.28-3.17-1.32-4.94-4.32-5.77-7.53-.92-3.6-.78-7.43-.52-11.11s.83-7.54,1.77-11.22c1.8-7.03,5.14-14.69,10.9-19.39,2.34-1.91,6.17-3.54,8.68-1,1.63,1.65,1.94,4.36,1.51,6.54-1.59,7.93-11.49,8.73-18.03,9.14-1.92,.12-1.93,3.12,0,3h0Z"/>
    <path d="M28.69,43.98c-3.94,5.79-8.44,12.77-6.58,20.11,1.43,5.64,6.78,10.84,12.95,9.03,5.64-1.66,8.38-8.16,8.35-13.6-.04-5.98-3.38-12.72-9.36-14.67-6.4-2.09-14.2,4.37-11.36,11.07,.32,.75,1.41,.9,2.05,.54,.78-.44,.85-1.31,.54-2.05-.84-1.99,.4-4.12,1.91-5.37,1.76-1.46,4.05-2.01,6.22-1.23,4.5,1.6,6.92,7.07,6.99,11.56,.07,4.03-1.68,9.32-5.86,10.78-4.6,1.6-8.42-2.61-9.51-6.68-1.73-6.49,2.78-12.89,6.23-17.96,1.09-1.6-1.51-3.1-2.59-1.51h0Z"/>
    <path d="M46.27,48.69c1.21,8.07,1.63,16.24,1.31,24.39-.08,1.93,2.91,1.92,3,0,.19-4.03,.68-8.02,1.5-11.97,.69-3.33,1.35-7.08,3.07-10.06,1.26-2.18,3.77-3.56,5.65-1.21,1.7,2.13,2.01,5.15,2.29,7.76,.5,4.73,1,9.46,1.5,14.19,.2,1.9,3.2,1.92,3,0-.52-4.89-1.04-9.79-1.55-14.68-.35-3.28-.9-6.79-3.11-9.39s-5.8-2.83-8.35-.67c-2.91,2.46-3.83,6.77-4.7,10.28-1.28,5.16-2.03,10.44-2.28,15.75h3c.33-8.43-.16-16.85-1.41-25.19-.29-1.9-3.18-1.09-2.89,.8h0Z"/>
    <path d="M82.58,1.44c1.43,18,2.01,36.06,1.72,54.11-.08,5.13-.24,10.27-.45,15.39h3c.13-12.27-.31-27.01-10.49-35.59-.87-.73-2.73-.36-2.56,1.06,.59,4.97,3.98,9.16,8.81,10.6,1.85,.55,2.65-2.34,.8-2.89-3.44-1.03-6.18-4.11-6.61-7.71l-2.56,1.06c9.55,8.06,9.73,21.98,9.61,33.47-.02,1.94,2.92,1.92,3,0,.77-18.04,.69-36.11-.25-54.13-.27-5.13-.61-10.25-1.02-15.37-.15-1.91-3.15-1.93-3,0h0Z"/>
    <path d="M106.69,53.35c-.85-3.65-4.82-4.97-8.17-4.39-4.24,.74-6.57,4.67-7.51,8.57-.52,2.16-.76,4.42-.91,6.63s.06,4.59,1.6,6.33c2.61,2.97,7.24,1.96,9.89-.38,4.22-3.73,2.85-10.2,1.62-14.94-.49-1.87-3.36-1.08-2.89,.8,1.57,6.32,3.96,12.42,7.09,18.14,.93,1.69,3.52,.18,2.59-1.51-3.01-5.5-5.27-11.34-6.78-17.42l-2.89,.8c.87,3.34,2.1,7.66,.16,10.86-1.08,1.77-4.08,3.39-6.05,2.09-1.27-.84-1.39-2.53-1.36-3.91,.04-1.68,.24-3.4,.52-5.06,.47-2.79,1.43-6.46,4.31-7.7,2.01-.87,5.32-.63,5.91,1.89,.44,1.88,3.33,1.08,2.89-.8h0Z"/>
    <path d="M114.65,49.06c2.48,1.68,5.4,3.37,8.52,2.75,2.13-.42,3.55-2.09,3.88-4.2,.29-1.82-.25-3.91-2.02-4.77-2.58-1.25-4.86,1.07-6.06,3.11-3.09,5.26-5.2,11.65-5.34,17.78-.1,4.55,1.51,10.72,6.64,11.92,4.38,1.02,10.56-2.4,8.97-7.53-.57-1.84-3.47-1.05-2.89,.8,.81,2.61-2.61,4.1-4.73,3.92-3.42-.28-4.75-4.44-4.95-7.32-.29-4.19,.79-8.49,2.23-12.39,.78-2.11,1.74-4.23,2.95-6.14,.41-.65,1.72-2.29,2.21-.97,.31,.86-.07,2.22-.89,2.67-2.19,1.21-5.3-1.08-7-2.23-1.6-1.09-3.11,1.51-1.51,2.59h0Z"/>
    <path d="M143.28,21.3c-1.29,15.96-2.57,31.92-3.86,47.88-.16,1.95,2.78,1.88,3,0,1.51-13.09-3.64-26.65-13.42-35.47-1.19-1.08-3.4,.36-2.36,1.82,3.55,4.93,9.5,7.82,15.6,7.25,1.91-.18,1.92-3.18,0-3-4.99,.47-10.05-1.66-13.01-5.77l-2.36,1.82c9.26,8.36,13.97,20.97,12.54,33.35h3c1.29-15.96,2.57-31.92,3.86-47.88,.16-1.92-2.85-1.91-3,0h0Z"/>
    <path d="M145.84,72.36c3.02-8.24,6.42-17.19,13.37-22.96,2.95-2.45,8.42-5.8,12.07-2.98,2.69,2.07,3.26,6.37,1.97,9.35-2.08,4.84-7.76,7.04-12.52,8.12-1.88,.43-1.09,3.32,.8,2.89,5.16-1.17,10.44-3.47,13.48-8.01,2.46-3.69,2.56-8.96,.02-12.65-1.29-1.86-3.17-3.22-5.43-3.59-2.94-.49-5.86,.57-8.41,1.95-4.52,2.45-8.05,6.35-10.76,10.66-3.22,5.1-5.41,10.8-7.48,16.44-.66,1.82,2.23,2.6,2.89,.8h0Z"/>
  </g>
</svg>