<?xml version="1.0" encoding="UTF-8"?>
<svg id="Layer_2" data-name="Layer 2" xmlns="http://www.w3.org/2000/svg" viewBox="0 0 331.64 172.11">
  <g id="Layer_1-2" data-name="Layer 1">
    <g>
      <path d="m14.12,138.33c-4.09-18.12-7.83-36.33-11.2-54.6l-2.74,1.16c1.89,3.49,5.75,5.26,9.62,5.32,4.33.06,8.23-2.16,11.13-5.26,3.23-3.44,5.42-7.78,7.11-12.14,1.79-4.61,2.86-9.48,3.27-14.4.47-5.64-.03-11.35-1.41-16.84-.37-1.47-2.47-1.38-2.89,0-5.4,17.82-6.87,36.76-4.41,55.21,1.24,9.29,3.44,18.44,6.65,27.25,1.14,3.13,2.83,8.49,7,8.54,2.09.03,3.5-1.51,4.24-3.31.88-2.12,1.45-4.4,2.01-6.62,2.66-10.58,3.09-21.61,1.42-32.38-.27-1.75-2.86-1.2-2.95.4-.29,5.23.41,10.52,2.1,15.48.83,2.43,1.88,4.8,3.15,7.04,1.1,1.93,2.46,4.08,4.83,4.46,4.85.77,7.09-5.73,8.19-9.29,1.4-4.55,1.86-9.42,1.37-14.16-.56-5.42-2.28-10.66-5.17-15.3-.89-1.42-3.2-.52-2.74,1.16,3.1,11.24,7.65,22,11.69,32.92,3.9,10.55,7.52,21.46,8.27,32.76.36,5.42.21,11.14-1.19,16.42-.57,2.17-1.68,4.42-3.41,5.91-1.5,1.29-3.57,1.49-4.87-.21s-1.39-4.02-1.47-5.99c-.12-2.99-.15-5.98-.1-8.96.11-6.15.58-12.29,1.42-18.38,1.88-13.52,5.54-26.76,10.84-39.33.32-.75-.34-1.64-1.05-1.85-.86-.25-1.53.3-1.85,1.05-5.06,12.01-8.62,24.63-10.57,37.51-.96,6.35-1.56,12.74-1.75,19.16-.1,3.22-.09,6.44,0,9.65.08,2.54.2,5.15,1.27,7.5.99,2.15,2.96,3.77,5.38,3.91,2.28.13,4.35-1.21,5.78-2.88,3.58-4.2,4.22-10.03,4.57-15.33.79-12.06-2.24-24-6.11-35.32-4.51-13.16-10.27-25.89-13.98-39.32l-2.74,1.16c4.32,6.93,5.92,15.44,4.4,23.48-.38,2.02-.94,4-1.69,5.91-.62,1.59-1.43,3.8-3.02,4.67-1.85,1.01-3.13-1.72-3.84-2.99-1.06-1.89-1.96-3.87-2.68-5.93-1.67-4.79-2.35-9.82-2.06-14.88l-2.95.4c1.36,8.76,1.21,17.77-.47,26.48-.42,2.21-.94,4.39-1.55,6.55-.3,1.04-.61,2.08-.95,3.11-.24.73-.53,1.96-1.34,2.29-1.38.56-2.69-1.76-3.17-2.7-.95-1.84-1.56-3.92-2.23-5.87-5.51-16.1-7.72-33.25-6.59-50.22.64-9.61,2.39-19.11,5.18-28.33h-2.89c2.15,8.53,1.93,17.56-.6,25.98-1.24,4.12-3,8.17-5.42,11.74-2.07,3.04-4.96,5.94-8.64,6.84s-7.76-.2-9.58-3.55c-.85-1.58-3.04-.44-2.74,1.16,3.37,18.27,7.1,36.47,11.2,54.6.43,1.88,3.32,1.09,2.89-.8h0Z"/>
      <path d="m71.35,46.81c7.71,13.67,15.41,27.34,23.12,41.01.74,1.31,2.78.71,2.8-.76.07-8.79.13-17.59.2-26.38l-2.8.76c4.6,10.52,10.4,20.48,17.3,29.66.49.65,1.29.99,2.05.54,6.73-3.95,7.36-12.45,6.01-19.38-.79-4.05-2.39-7.93-4.14-11.64-1.93-4.1-4.26-8.01-6.94-11.66-3.08-4.21-6.57-8.09-10.47-11.56-1.44-1.28-3.57.83-2.12,2.12,6.28,5.59,11.52,12.24,15.46,19.67,3.39,6.4,6.46,13.74,5.71,21.14-.36,3.53-1.88,6.87-5.02,8.72l2.05.54c-6.9-9.18-12.71-19.13-17.3-29.66-.62-1.43-2.78-.62-2.8.76-.07,8.79-.13,17.59-.2,26.38l2.8-.76c-7.71-13.67-15.41-27.34-23.12-41.01-.95-1.68-3.54-.17-2.59,1.51h0Z"/>
      <path d="m123.08,70.94c-2.59,8.3,2.5,17.81,10.76,20.4.83.26,1.57-.31,1.85-1.05,4.13-10.93,1.32-23.9-6.83-32.23v2.12c3.47-3.17,9.07-2.56,12.64.14,1.94,1.47,3.18,3.56,3.42,5.99.38,3.75-.83,7.48-.06,11.21.64,3.11,2.59,6.14,5.83,6.92,1.88.45,2.68-2.44.8-2.89-2.95-.71-3.91-4.19-3.91-6.87,0-3.84,1.1-7.84-.33-11.56-1.9-4.95-7.16-7.97-12.34-8.07-3.02-.06-5.93.97-8.17,3.01-.6.55-.55,1.56,0,2.12,7.46,7.63,9.82,19.36,6.06,29.31l1.85-1.05c-6.75-2.12-10.76-10-8.67-16.71.58-1.85-2.32-2.64-2.89-.8h0Z"/>
      <path d="m147.83,10.48c3.51,17.7,6.52,35.51,9.01,53.38.7,5.07,1.36,10.14,1.98,15.22.23,1.89,3.23,1.92,3,0-2.21-18.13-4.94-36.2-8.2-54.17-.92-5.09-1.89-10.16-2.9-15.23-.38-1.89-3.27-1.09-2.89.8h0Z"/>
      <path d="m166.61,14.79c.98,7.53,1.73,15.12,1.54,22.72s-1.23,14.69-4.33,21.31c-1.72,3.66-4.03,6.97-6.93,9.8l2.51.66c-.18-1.08.97-1.76,1.83-2.04,1.27-.41,2.64-.26,3.71.56,2.91,2.23,3.59,6.34,5.48,9.3s5.25,5.84,9.08,4.87c3.43-.87,5.22-4.41,5.62-7.67.5-4.09-1.4-8.26-.29-12.3.76-2.77,2.77-5.04,5.2-6.5,4.87-2.94,11.63-2.62,14.77,2.62s1.82,13.26-3.74,16.36c-1.69.94-.18,3.53,1.51,2.59,5.85-3.25,8.06-10.76,6.3-16.99-1.92-6.82-8.44-10.57-15.32-9.16-6.93,1.42-12.38,7.41-12.03,14.62.19,3.94,2.11,9.36-1.18,12.6-3.5,3.44-7.25-2.07-8.55-4.87-1.71-3.69-3.63-8.6-8.26-9.18-3.63-.45-7.71,1.94-7.03,5.99.19,1.16,1.77,1.39,2.51.66,11.32-11.07,12.86-27.7,11.94-42.69-.27-4.44-.76-8.85-1.33-13.26-.24-1.89-3.25-1.91-3,0h0Z"/>
      <path d="m246.62,30.85c20.89-2.32,41.78-4.63,62.66-6.95,1.9-.21,1.92-3.21,0-3-20.89,2.32-41.78,4.63-62.66,6.95-1.9.21-1.92,3.21,0,3h0Z"/>
      <path d="m291.83,7.36c12.14,9.5,24.27,19,36.41,28.51l1.46-2.51c-11.17-3.17-22.98-3.52-34.32-1.06l1.16,2.74c9.79-4.34,14.66-16.21,12.49-26.4-.62-2.89-1.86-5.66-3.65-8.01-1.16-1.51-3.76-.02-2.59,1.51,7.39,9.68,3.39,25.37-7.75,30.31-1.62.72-.42,3.08,1.16,2.74,10.82-2.35,22.08-1.96,32.72,1.06,1.34.38,2.69-1.55,1.46-2.51-12.14-9.5-24.27-19-36.41-28.51-1.5-1.18-3.64.93-2.12,2.12h0Z"/>
    </g>
  </g>
</svg>