<?xml version="1.0" encoding="UTF-8"?>
<svg id="Layer_2" data-name="Layer 2" xmlns="http://www.w3.org/2000/svg" viewBox="0 0 467.52 102.31">
  <g id="Layer_1-2" data-name="Layer 1">
    <g id="nome">
      <path d="m29.88,27.13c2.21,18.42,5.58,36.68,10.11,54.66.47,1.88,3.29,1.08,2.89-.8-4-19.03-15.61-36.45-31.8-47.27-2.23-1.49-5.1-2.91-7.79-1.82-2.23.9-3.95,3.38-3.04,5.8.24.65.74,1.07,1.45,1.1,19.26.71,36.05-10.57,54.66-13.48,5.09-.8,10.3-.8,15.34.33,1.88.42,2.68-2.47.8-2.89-19.12-4.28-36.96,6.59-54.93,11.14-5.19,1.31-10.49,2.11-15.86,1.91l1.45,1.1c-.29-.76.01-1.4.66-1.89.84-.64,1.87-.56,2.82-.27,2.07.64,3.94,2.2,5.65,3.48,3.42,2.55,6.6,5.43,9.51,8.55,5.83,6.24,10.55,13.5,13.92,21.34,1.89,4.39,3.3,8.99,4.29,13.67l2.89-.8c-4.47-17.72-7.82-35.72-10.01-53.87-.23-1.89-3.23-1.92-3,0h0Z"/>
      <path d="m23.53,86.67h43.92c1.93,0,1.93-3,0-3H23.53c-1.93,0-1.93,3,0,3h0Z"/>
      <path d="m61.61,60.75c3.43,7.14,6.86,14.28,10.29,21.42.48,1,2.09.95,2.59,0,1.65-3.15,1.78-6.61,2.06-10.08.23-2.95.8-5.99,3.01-8.16,1.97-1.94,4.66-1.75,6.35.45,1.87,2.42,2.07,5.6,2.47,8.51s1.1,6.13,3.32,8.37c1.7,1.72,4.08,2.57,6.48,2.52,4.85-.1,9.75-3.33,11.8-7.72,3.47-7.42.18-16-2.72-23-.38-.91-1.72-1.65-2.51-.66-4.34,5.4-4.83,12.92-1.9,19.11,1.46,3.07,4,6.03,7.17,7.41,1.81.78,3.83.81,5.41-.48,1.43-1.17,2.05-2.99,2.58-4.69,2.04-6.55,4.01-13.74,8.5-19.11,2.15-2.57,4.92-4.62,8.22-5.42,1.9-.46,4.05-.36,5.38,1.26s1.81,3.79,2.42,5.67c1.45,4.47,3.11,10.39.1,14.6-1.97,2.77-5.95,4.73-9.01,2.52-1.57-1.13-3.07,1.47-1.51,2.59,2.83,2.04,6.57,1.63,9.44-.12,3.45-2.1,5.3-5.58,5.65-9.55.42-4.76-1.22-9.7-2.89-14.08-.73-1.93-1.7-3.8-3.46-4.98s-3.93-1.32-5.95-1c-7.27,1.14-12.16,7.5-15.06,13.75-1.57,3.38-2.78,6.91-3.9,10.46-.53,1.68-.87,3.73-1.89,5.2-1.29,1.85-3.47.46-4.82-.63-5.85-4.74-7.11-14.48-2.36-20.4l-2.51-.66c2.54,6.14,5.85,13.88,3.11,20.51-1.61,3.9-6.48,7.17-10.78,6.3-6.18-1.25-4.94-9.53-6.39-14.08-.8-2.52-2.27-5.12-4.72-6.34s-5.38-.74-7.52,1.01c-2.48,2.04-3.81,5.22-4.24,8.33-.51,3.68-.14,7.68-1.91,11.07h2.59c-3.43-7.14-6.86-14.28-10.29-21.42-.84-1.74-3.42-.22-2.59,1.51h0Z"/>
      <path d="m93.42,36.35c.17-2.28.79-4.86,2.23-6.69,1.64-2.09,3.6-1.25,5.07.59,2.31,2.89,4.39,5.99,6.58,8.98,2.3,3.14,4.59,6.29,6.89,9.43,1.13,1.54,3.73.05,2.59-1.51-2.76-3.77-5.51-7.55-8.27-11.32-1.38-1.89-2.76-3.77-4.14-5.66-1.04-1.43-2.05-2.94-3.56-3.92-2.58-1.68-5.63-.8-7.46,1.5s-2.71,5.59-2.94,8.6c-.15,1.93,2.86,1.92,3,0h0Z"/>
      <path d="m224.64,10.9c-11.23,7.16-19.01,19.09-20.38,32.4-1.27,12.36,3.17,25.58,13.38,33.11,9.24,6.82,22.58,8.45,32.85,3,11.05-5.86,17.57-21.08,9.5-31.96-3.6-4.86-9.47-8.15-15.64-7.24s-11.26,5.63-12.58,11.47c-.32,1.44-.4,2.9-.21,4.36.25,1.87,2.88,1.98,3,0,.3-4.93.6-9.85.9-14.78.12-1.93-2.88-1.92-3,0-.3,4.93-.6,9.85-.9,14.78h3c-.71-5.4,3.01-10.52,8.03-12.31s10.53.35,14.04,4.29c8.15,9.16,2.62,22.98-7.06,28.46-8.9,5.03-20.44,3.81-28.87-1.61-9.45-6.08-13.91-17.5-13.64-28.43.33-13.41,7.86-25.8,19.09-32.97,1.62-1.04.12-3.63-1.51-2.59h0Z"/>
      <path d="m271.57,50.28c-2.51,7.74-4.87,17.16,1.56,23.72,2.42,2.46,5.78,3.81,9.23,3.2,2.96-.52,5.38-2.56,6.94-5.05,3.61-5.78,2.93-13.3-1.08-18.68s-11.55-9.04-17.63-5.05c-5.23,3.42-7.95,11.93-2.72,16.57,1.44,1.28,3.57-.84,2.12-2.12-3.48-3.09-1.8-8.53,1.3-11.24,4.27-3.74,10.33-1.19,13.65,2.53,3.59,4.02,4.81,9.76,2.66,14.78-.88,2.05-2.37,4.02-4.47,4.93-2.36,1.01-5.02.39-6.98-1.17-6.73-5.34-3.91-14.79-1.69-21.63.6-1.84-2.3-2.63-2.89-.8h0Z"/>
      <path d="m294.33,51.21c2.13,9.65,4.26,19.3,6.39,28.95.35,1.6,2.38,1.23,2.89,0,1.87-4.52.47-9.3.18-13.97-.2-3.23.73-7.19,3.74-8.96,3.78-2.22,6.1,3,7.13,5.74,1.73,4.6,2.5,9.45,2.32,14.36-.07,1.93,2.93,1.93,3,0,.16-4.38-.39-8.81-1.69-13-1.06-3.42-2.51-7.73-5.75-9.69-6.5-3.92-11.8,4.61-11.81,10.21,0,4.83,1.9,9.82-.03,14.51h2.89c-2.13-9.65-4.26-19.3-6.39-28.95-.42-1.88-3.31-1.09-2.89.8h0Z"/>
      <path d="m321.31,51.89c3.67.89,7.73,1.81,11.38.35,2.95-1.18,5.11-3.54,5.52-6.73.12-.91-1.06-1.79-1.9-1.45-7.88,3.19-13.62,10.49-15.22,18.81-.8,4.15-.65,8.64.91,12.6.85,2.15,2.14,4.23,4.22,5.39s4.36,1.2,6.49.5c5.6-1.83,7.79-7.45,9.47-12.58l-2.95-.4c-.56,10.83-1.12,21.65-1.68,32.48-.1,1.93,2.9,1.92,3,0,.56-10.83,1.12-21.65,1.68-32.48.09-1.75-2.44-1.95-2.95-.4-1.23,3.75-2.63,8.13-6.39,10.07-1.52.78-3.42,1.09-5,.31-1.76-.87-2.74-2.8-3.32-4.58-2.18-6.64-.48-14.04,3.53-19.63,2.26-3.14,5.41-5.74,9.01-7.2l-1.9-1.45c-.27,2.14-2.37,3.64-4.31,4.19-2.88.81-5.97-.01-8.78-.69-1.88-.45-2.68,2.44-.8,2.89h0Z"/>
      <path d="m366.84,56.92c1.02-5.25-3.58-9.21-8.44-9.84-5.64-.73-9.96,3.52-11.89,8.45-2.06,5.24-2.45,12.91.92,17.7,1.62,2.3,4.28,3.87,7.15,3.85,3.26-.03,5.41-2.25,6.66-5.08,3.05-6.92,2.63-15.02-.89-21.69-.85-1.61-3-.42-2.74,1.16,1.44,8.75,5.05,17.07,10.45,24.1.5.65,1.28.97,2.05.54.64-.36,1.03-1.41.54-2.05-5.27-6.85-8.74-14.85-10.15-23.38l-2.74,1.16c2.43,4.61,3.17,10.05,2,15.13-.5,2.19-1.32,5.51-3.44,6.69-1.8,1-4.18.2-5.59-1.12-3.35-3.17-3.12-9.37-2.16-13.5.88-3.79,3.29-8.4,7.59-8.99,3.37-.46,8.58,2.03,7.78,6.09-.37,1.89,2.52,2.69,2.89.8h0Z"/>
      <path d="m380.99,73.03c2.78-11.38,3.86-23.17,3.17-34.86-.34-5.76-1.1-11.5-2.27-17.15s-2.48-11.14-4.7-16.28c-.9-2.09-2.4-4.05-4.74-4.59-2.15-.49-4.37.31-6.04,1.67-4.45,3.63-3.35,9.86-2.38,14.79,2.23,11.35,5.34,22.54,9.27,33.42,4.42,12.21,9.87,24.05,16.28,35.35.95,1.68,3.55.17,2.59-1.51-10.54-18.58-18.43-38.61-23.37-59.4-.63-2.65-1.21-5.31-1.74-7.98s-1.11-5.16-.89-7.77c.19-2.19,1.16-4.26,3.2-5.26s3.73-.1,4.75,1.79c1.16,2.16,1.78,4.72,2.47,7.06.76,2.55,1.43,5.14,2.02,7.74,1.18,5.3,1.99,10.67,2.41,16.09.93,12.11-.04,24.32-2.92,36.12-.46,1.88,2.43,2.68,2.89.8h0Z"/>
      <path d="m401.47,67.04c-3.46-6.68-4.8-14.4-3.7-21.86l-2.74.36c6.03,9.22,12.07,18.44,18.1,27.66.66,1,2.46.98,2.74-.36,1.93-9.26,0-19.11-5.42-26.89l-1.3,2.26c8.06.19,16.11-.79,23.89-2.9l-1.16-2.74c-7.7,4.85-9.82,14.5-8.69,22.99.35,2.63.94,5.21,1.66,7.75s1.37,5.01,2.35,7.36c.79,1.9,2.56,3.34,4.71,2.77,1.97-.52,3.47-2.31,4.44-4.01,2.73-4.77,5.13-9.78,7.69-14.65,1.99-3.79,3.86-8.32,7.42-10.94,8.35-6.15,13,10.62,13.07,16.16.05,4.33-1.67,8.51-5.92,10.12-3.02,1.14-6.9.95-8.56-2.2-.9-1.71-3.49-.2-2.59,1.51,3.43,6.54,13.14,4.96,17.19-.04,2.94-3.62,3.25-8.64,2.51-13.07-.41-2.43-1.17-4.79-2.11-7.06-.83-2.03-1.74-4.05-3.07-5.81-2.57-3.4-6.65-4.97-10.64-3.04-3.77,1.83-6.2,5.81-8.08,9.38-2.7,5.14-5.39,10.28-8.09,15.43-.58,1.11-1.11,2.28-1.81,3.32-.47.7-1.35,1.91-2.26,2.01-.97.11-1.24-1.23-1.47-1.94-.47-1.42-.93-2.85-1.36-4.28-1.67-5.49-3.1-11.41-2.13-17.17.81-4.75,3.07-9.38,7.24-12.01,1.42-.89.52-3.2-1.16-2.74-7.54,2.04-15.29,2.97-23.09,2.79-1.08-.02-1.95,1.32-1.3,2.26,4.96,7.11,6.89,16.07,5.11,24.58l2.74-.36c-6.03-9.22-12.07-18.44-18.1-27.66-.63-.96-2.54-1.02-2.74.36-1.22,8.31.14,16.71,4.01,24.17.89,1.71,3.48.2,2.59-1.51h0Z"/>
    </g>
  </g>
</svg>